<svg id="Layer_1" enable-background="new 0 0 512 512" height="512" viewBox="0 0 512 512" width="512" xmlns="http://www.w3.org/2000/svg"><path d="m470.012 276.155c-7.088-4.288-16.31-2.019-20.598 5.07-4.288 7.088-2.018 16.311 5.071 20.598 17.744 10.734 27.516 22.418 27.516 32.9 0 11.091-10.789 23.373-30.379 34.583-22.679 12.979-55.052 23.445-93.622 30.27-8.157 1.443-13.6 9.227-12.157 17.384 1.287 7.274 7.614 12.39 14.753 12.39.868 0 1.748-.076 2.631-.232 93.157-16.484 148.773-51.771 148.773-94.394 0-27.414-22.833-46.982-41.988-58.569z"/><path d="m265 411.083-40-30c-6.627-4.969-16.029-3.626-21 3-4.971 6.627-3.627 16.029 3 21l1.698 1.273c-44.521-3.304-85.316-11.273-117.947-23.237-38.041-13.946-60.751-32.038-60.751-48.395 0-10.482 9.772-22.167 27.518-32.9 7.088-4.288 9.358-13.51 5.071-20.599-4.287-7.088-13.509-9.358-20.598-5.071-19.157 11.587-41.991 31.154-41.991 58.57 0 20.519 13.113 36.192 24.114 45.728 13.518 11.718 32.463 22.092 56.31 30.835 36.711 13.46 82.658 22.209 132.412 25.42l-5.836 4.376c-6.627 4.971-7.971 14.373-3 21 2.947 3.93 7.451 6.001 12.012 6.001 3.131 0 6.29-.978 8.988-3.001l40-30c3.777-2.833 6-7.278 6-12s-2.223-9.167-6-12z"/><path d="m256 258.552c18.33 0 33.23-14.91 33.23-33.24 0-18.32-14.9-33.23-33.23-33.23s-33.23 14.91-33.23 33.23c0 18.33 14.9 33.24 33.23 33.24z"/><path d="m145.43 337.182h221.14c27.74 0 50.3-22.56 50.3-50.3v-123.14c0-27.73-22.56-50.3-50.3-50.3h-195.823v-35.685c0-8.284-6.716-15-15-15s-15 6.716-15 15v35.902c-25.552 2.37-45.617 23.931-45.617 50.083v123.14c0 27.74 22.56 50.3 50.3 50.3zm110.57-175.1c34.87 0 63.23 28.36 63.23 63.23s-28.36 63.24-63.23 63.24-63.23-28.37-63.23-63.24 28.36-63.23 63.23-63.23z"/><path d="m310.53 64.516c0-11.377-9.223-20.6-20.6-20.6h-67.86c-11.377 0-20.6 9.223-20.6 20.6v18.926h109.06z"/></svg>