<svg id="Capa_1" enable-background="new 0 0 511.989 511.989" height="512" viewBox="0 0 511.989 511.989" width="512" xmlns="http://www.w3.org/2000/svg"><path d="m374.201 416.49h-12.106l-4.541-27.357h-30.411l4.541 27.357h-151.211l4.541-27.357h-30.41l-4.541 27.357h-12.276c-8.284 0-15 6.716-15 15s6.716 15 15 15h7.296l-7.973 48.039c-1.356 8.173 4.169 15.897 12.341 17.254 8.175 1.359 15.897-4.17 17.253-12.342l8.789-52.951h161.17l8.789 52.951c1.219 7.342 7.575 12.546 14.779 12.546.816 0 1.644-.066 2.475-.204 8.173-1.357 13.698-9.081 12.342-17.254l-7.973-48.039h7.127c8.284 0 15-6.716 15-15s-6.716-15-15.001-15z"/><path d="m271.079 15c0-8.284-6.716-15-15-15s-15 6.716-15 15v24.137h30z"/><path d="m449.494 329.133h-23.5v-244.996c0-8.284-6.716-15-15-15h-310c-8.284 0-15 6.716-15 15v244.996h-23.5c-8.284 0-15 6.716-15 15s6.716 15 15 15h38.5 310 38.5c8.284 0 15-6.716 15-15s-6.715-15-15-15zm-297.759-209.997h50.18c8.284 0 15 6.716 15 15s-6.716 15-15 15h-50.18c-8.284 0-15-6.716-15-15s6.716-15 15-15zm130.175 89.999h-130.175c-8.284 0-15-6.716-15-15s6.716-15 15-15h130.175c8.284 0 15 6.716 15 15s-6.715 15-15 15z"/></svg>